<svg xmlns="http://www.w3.org/2000/svg" viewBox="0 0 420 80" fill="none">
  <!-- Logomark: three staggered phones, scaled to fit -->
  <!-- Left phone -->
  <rect x="4" y="16" width="26" height="42" rx="4.5" fill="#1A1A2E" stroke="#F97316" stroke-width="1.5"/>
  <rect x="7.5" y="21" width="19" height="28" rx="1.5" fill="url(#lh-grad-left)"/>
  <circle cx="17" cy="52" r="2" fill="#F97316" opacity="0.6"/>
  <rect x="9.5" y="24" width="14" height="1.5" rx="0.75" fill="#F97316" opacity="0.5"/>
  <rect x="9.5" y="28" width="10" height="1.5" rx="0.75" fill="#F97316" opacity="0.3"/>
  <rect x="9.5" y="35" width="14" height="5" rx="1.5" fill="#F97316" opacity="0.35"/>

  <!-- Middle phone (raised) -->
  <rect x="33" y="6" width="26" height="42" rx="4.5" fill="#1A1A2E" stroke="#6366F1" stroke-width="1.5"/>
  <rect x="36.5" y="11" width="19" height="28" rx="1.5" fill="url(#lh-grad-mid)"/>
  <circle cx="46" cy="42" r="2" fill="#6366F1" opacity="0.8"/>
  <rect x="38.5" y="14" width="14" height="1.5" rx="0.75" fill="#6366F1" opacity="0.6"/>
  <rect x="38.5" y="18" width="10" height="1.5" rx="0.75" fill="#6366F1" opacity="0.4"/>
  <rect x="38.5" y="25" width="14" height="5" rx="1.5" fill="#6366F1" opacity="0.45"/>

  <!-- Right phone -->
  <rect x="62" y="16" width="26" height="42" rx="4.5" fill="#1A1A2E" stroke="#10B981" stroke-width="1.5"/>
  <rect x="65.5" y="21" width="19" height="28" rx="1.5" fill="url(#lh-grad-right)"/>
  <circle cx="75" cy="52" r="2" fill="#10B981" opacity="0.6"/>
  <rect x="67.5" y="24" width="14" height="1.5" rx="0.75" fill="#10B981" opacity="0.5"/>
  <rect x="67.5" y="28" width="10" height="1.5" rx="0.75" fill="#10B981" opacity="0.3"/>
  <rect x="67.5" y="35" width="14" height="5" rx="1.5" fill="#10B981" opacity="0.35"/>

  <!-- Wordmark: webapps.life in Syne-style geometric sans -->
  <!-- Using system font fallback with letter-spacing for web use; export as SVG for web embedding -->
  <text x="104" y="50"
    font-family="Syne, 'Space Grotesk', 'DM Sans', sans-serif"
    font-weight="700"
    font-size="28"
    letter-spacing="-0.5"
    fill="#1A1A2E">webapps<tspan fill="#6366F1">.</tspan>life</text>

  <defs>
    <linearGradient id="lh-grad-left" x1="7.5" y1="21" x2="26.5" y2="49" gradientUnits="userSpaceOnUse">
      <stop offset="0%" stop-color="#F97316" stop-opacity="0.25"/>
      <stop offset="100%" stop-color="#F97316" stop-opacity="0.05"/>
    </linearGradient>
    <linearGradient id="lh-grad-mid" x1="36.5" y1="11" x2="55.5" y2="39" gradientUnits="userSpaceOnUse">
      <stop offset="0%" stop-color="#6366F1" stop-opacity="0.35"/>
      <stop offset="100%" stop-color="#6366F1" stop-opacity="0.08"/>
    </linearGradient>
    <linearGradient id="lh-grad-right" x1="65.5" y1="21" x2="84.5" y2="49" gradientUnits="userSpaceOnUse">
      <stop offset="0%" stop-color="#10B981" stop-opacity="0.25"/>
      <stop offset="100%" stop-color="#10B981" stop-opacity="0.05"/>
    </linearGradient>
  </defs>
</svg>
