<svg xmlns="http://www.w3.org/2000/svg" viewBox="0 0 420 80" fill="none">
  <rect width="420" height="80" rx="12" fill="#1A1A2E"/>

  <!-- Left phone -->
  <rect x="16" y="16" width="26" height="42" rx="4.5" fill="#0F0F1A" stroke="#F97316" stroke-width="1.5"/>
  <rect x="19.5" y="21" width="19" height="28" rx="1.5" fill="url(#dk-grad-left)"/>
  <circle cx="29" cy="52" r="2" fill="#F97316" opacity="0.7"/>
  <rect x="21.5" y="24" width="14" height="1.5" rx="0.75" fill="#F97316" opacity="0.6"/>
  <rect x="21.5" y="28" width="10" height="1.5" rx="0.75" fill="#F97316" opacity="0.35"/>
  <rect x="21.5" y="35" width="14" height="5" rx="1.5" fill="#F97316" opacity="0.4"/>

  <!-- Middle phone (raised) -->
  <rect x="45" y="6" width="26" height="42" rx="4.5" fill="#0F0F1A" stroke="#6366F1" stroke-width="1.5"/>
  <rect x="48.5" y="11" width="19" height="28" rx="1.5" fill="url(#dk-grad-mid)"/>
  <circle cx="58" cy="42" r="2" fill="#6366F1" opacity="0.9"/>
  <rect x="50.5" y="14" width="14" height="1.5" rx="0.75" fill="#6366F1" opacity="0.7"/>
  <rect x="50.5" y="18" width="10" height="1.5" rx="0.75" fill="#6366F1" opacity="0.4"/>
  <rect x="50.5" y="25" width="14" height="5" rx="1.5" fill="#6366F1" opacity="0.5"/>

  <!-- Right phone -->
  <rect x="74" y="16" width="26" height="42" rx="4.5" fill="#0F0F1A" stroke="#10B981" stroke-width="1.5"/>
  <rect x="77.5" y="21" width="19" height="28" rx="1.5" fill="url(#dk-grad-right)"/>
  <circle cx="87" cy="52" r="2" fill="#10B981" opacity="0.7"/>
  <rect x="79.5" y="24" width="14" height="1.5" rx="0.75" fill="#10B981" opacity="0.6"/>
  <rect x="79.5" y="28" width="10" height="1.5" rx="0.75" fill="#10B981" opacity="0.35"/>
  <rect x="79.5" y="35" width="14" height="5" rx="1.5" fill="#10B981" opacity="0.4"/>

  <!-- Wordmark white on dark -->
  <text x="116" y="50"
    font-family="Syne, 'Space Grotesk', 'DM Sans', sans-serif"
    font-weight="700"
    font-size="28"
    letter-spacing="-0.5"
    fill="#F8F8FF">webapps<tspan fill="#6366F1">.</tspan>life</text>

  <defs>
    <linearGradient id="dk-grad-left" x1="19.5" y1="21" x2="38.5" y2="49" gradientUnits="userSpaceOnUse">
      <stop offset="0%" stop-color="#F97316" stop-opacity="0.35"/>
      <stop offset="100%" stop-color="#F97316" stop-opacity="0.08"/>
    </linearGradient>
    <linearGradient id="dk-grad-mid" x1="48.5" y1="11" x2="67.5" y2="39" gradientUnits="userSpaceOnUse">
      <stop offset="0%" stop-color="#6366F1" stop-opacity="0.45"/>
      <stop offset="100%" stop-color="#6366F1" stop-opacity="0.1"/>
    </linearGradient>
    <linearGradient id="dk-grad-right" x1="77.5" y1="21" x2="96.5" y2="49" gradientUnits="userSpaceOnUse">
      <stop offset="0%" stop-color="#10B981" stop-opacity="0.35"/>
      <stop offset="100%" stop-color="#10B981" stop-opacity="0.08"/>
    </linearGradient>
  </defs>
</svg>
